<svg height="20pt" viewBox="0 -14 512.00018 512" width="20pt" xmlns="http://www.w3.org/2000/svg"><path d="m265.757812 140.34375.152344-41.152344-183.464844-.675781-.152343 41.152344-16.777344 8.554687c-45.449219 23.167969-68.019531 75.371094-53.765625 124.351563l51.042969 175.429687c4.777343 16.421875 19.796875 27.738282 36.898437 27.800782l146.191406.539062c17.101563.0625 32.203126-11.140625 37.101563-27.527344l52.335937-175.046875c14.613282-48.878906-7.574218-101.242187-52.851562-124.746093zm0 0" fill="#ffface"/><path d="m282.472656 149.019531-16.714844-8.675781.085938-23.46875c-2.023438.648438-4.167969 1.015625-6.386719 1.007812l-2.828125-.011718c-5.683594-.019532-10.300781 4.578125-10.300781 10.261718-.042969 11.617188 13.46875 9.070313 43.28125 35.039063 2.191406 1.90625 2.792969 4.40625 2.3125 6.664063-1.578125 7.390624-.894531 15.074218 2.792969 21.667968 13.613281 24.386719 17.527344 53.910156 9.050781 82.265625l-52.332031 175.046875c-4.617188 15.4375-18.285156 26.269532-34.152344 27.421875l28.601562.105469c17.101563.0625 32.203126-11.140625 37.101563-27.527344l52.335937-175.046875c14.613282-48.878906-7.570312-101.242187-52.847656-124.75zm0 0" fill="#fff58c"/><path d="m321.164062 163.171875c-29.8125-25.96875-43.324218-23.421875-43.28125-35.039063.019532-5.6875 4.648438-10.28125 10.335938-10.261718l2.792969.007812c10.777343.042969 19.988281-8.304687 20.410156-19.074218.445313-11.308594-8.570313-20.632813-19.789063-20.675782l-234.28125-.863281c-10.777343-.039063-19.988281 8.308594-20.410156 19.078125-.445312 11.304688 8.570313 20.632812 19.785156 20.675781l3.269532.011719c5.6875.019531 10.28125 4.648438 10.261718 10.335938-.042968 11.75-13.257812 8.738281-43.535156 34.714843-5.980468 5.132813-.304687 14.710938 7.105469 12.035157 6.285156-2.269532 13.308594-4.257813 25.621094-4.210938 28.613281.105469 28.574219 10.972656 57.1875 11.078125s28.652343-10.761719 57.269531-10.65625c28.613281.105469 28.574219 10.972656 57.1875 11.078125 28.617188.105469 28.65625-10.761719 57.273438-10.65625 12.324218.046875 19.332031 2.085938 25.605468 4.402344 7.386719 2.730468 13.132813-6.808594 7.191406-11.980469zm0 0" fill="#eab765"/><path d="m321.164062 163.171875c-29.8125-25.96875-43.324218-23.421875-43.28125-35.039063.019532-5.6875 4.648438-10.285156 10.339844-10.261718l2.789063.007812c10.777343.042969 19.988281-8.304687 20.410156-19.074218.445313-11.308594-8.570313-20.632813-19.785156-20.675782l-27.078125-.101562c8.5625 3.171875 15.664062 11.785156 15.308594 20.773437-.421876 10.769531-9.632813 19.117188-20.410157 19.078125l-2.792969-.011718c-5.6875-.019532-10.316406 4.574218-10.335937 10.265624-.039063 10.675782 11.378906 9.40625 36.367187 29.28125 1.625 1.292969 3.546876 2.882813 4.425782 3.625 2.375 2.003907 3.773437 2.984376 4.53125 5.046876.230468.625.324218 1.140624.371094 1.609374.121093 1.222657-.066407 1.921876-.289063 3.125 10.265625.371094 16.5625 2.234376 22.234375 4.332032 7.390625 2.730468 13.136719-6.808594 7.195312-11.980469zm0 0" fill="#d9ab5e"/><path d="m8.246094 255.210938c.679687 5.796874 1.828125 11.601562 3.503906 17.363281l51.042969 175.429687c4.777343 16.421875 19.796875 27.738282 36.898437 27.800782l146.191406.539062c17.101563.0625 32.203126-11.140625 37.101563-27.527344l52.335937-175.046875c1.71875-5.75 2.910157-11.546875 3.632813-17.339843zm0 0" fill="#ff9838"/><path d="m429.539062 477.105469c-9.621093-.035157-17.394531-7.867188-17.359374-17.492188l1.488281-403.917969 34.851562.128907-1.488281 403.917969c-.035156 9.625-7.867188 17.398437-17.492188 17.363281zm0 0" fill="#eab765"/><path d="m472.605469 91.160156-83.285157-.304687c-11.511718-.042969-20.8125-9.414063-20.769531-20.925781.042969-11.511719 9.410157-20.8125 20.925781-20.769532l83.28125.304688c11.515626.042968 20.8125 9.414062 20.773438 20.925781-.042969 11.511719-9.410156 20.8125-20.925781 20.769531zm0 0" fill="#fccd7f"/><path d="m472.761719 49.464844-31.65625-.117188c11.105469.558594 20.660156 9.855469 20.621093 21.042969-.039062 10.769531-8.246093 19.601563-18.730468 20.660156l29.609375.109375c11.515625.042969 20.882812-9.257812 20.925781-20.769531s-9.257812-20.882813-20.769531-20.925781zm0 0" fill="#eab765"/><path d="m483.597656 132.898438-105.574218-.390626c-11.515626-.039062-20.8125-9.410156-20.769532-20.921874.039063-11.515626 9.410156-20.8125 20.921875-20.773438l105.578125.390625c11.511719.042969 20.8125 9.410156 20.769532 20.925781-.042969 11.511719-9.410157 20.8125-20.925782 20.769532zm0 0" fill="#fccd7f"/><path d="m483.753906 91.203125-32.160156-.117187c11.457031.113281 21.167969 9.570312 21.125 21.042968-.039062 10.769532-8.246094 19.601563-18.730469 20.660156l29.609375.109376c11.515625.042968 20.882813-9.257813 20.925782-20.769532.042968-11.515625-9.257813-20.882812-20.769532-20.925781zm0 0" fill="#eab765"/><path d="m472.300781 174.550781-83.285156-.304687c-11.515625-.042969-20.8125-9.410156-20.773437-20.925782.042968-11.511718 9.414062-20.8125 20.925781-20.769531l83.285156.304688c11.511719.042969 20.8125 9.414062 20.769531 20.925781-.042968 11.515625-9.410156 20.8125-20.921875 20.769531zm0 0" fill="#fccd7f"/><path d="m462.363281 216.210938-63.722656-.234376c-11.511719-.042968-20.8125-9.410156-20.769531-20.925781.042968-11.511719 9.410156-20.8125 20.925781-20.769531l63.71875.234375c11.515625.042969 20.8125 9.410156 20.773437 20.925781-.042968 11.511719-9.410156 20.8125-20.925781 20.769532zm0 0" fill="#fccd7f"/><path d="m463.132812 7.734375-63.722656-.234375c-11.511718-.042969-20.882812 9.257812-20.925781 20.769531-.039063 11.515625 9.257813 20.882813 20.773437 20.925781l36.230469.132813-.167969 45.257813c-.03125 8.753906 7.039063 15.875 15.789063 15.90625s15.871094-7.035157 15.902344-15.789063l.167969-45.679687c9.507812-1.910157 16.683593-10.289063 16.722656-20.363282.042968-11.515625-9.257813-20.882812-20.769532-20.925781zm0 0" fill="#ff8709"/><path d="m472.453125 132.855469-29.652344-.105469c10.414063 1.253906 18.660157 10.324219 18.617188 21.03125-.039063 10.773438-8.242188 19.605469-18.730469 20.664062l29.613281.109376c11.511719.039062 20.878907-9.257813 20.921875-20.773438.042969-11.515625-9.257812-20.882812-20.769531-20.925781zm0 0" fill="#eab765"/><path d="m462.519531 174.515625-29.714843-.109375c10.4375 1.234375 18.71875 10.3125 18.679687 21.035156-.039063 10.773438-8.246094 19.601563-18.730469 20.660156l29.609375.109376c11.515625.042968 20.882813-9.253907 20.925781-20.769532.042969-11.515625-9.257812-20.882812-20.769531-20.925781zm0 0" fill="#eab765"/><path d="m307.421875 256.3125c-.722656 5.832031-1.925781 11.667969-3.65625 17.453125l-52.335937 175.050781c-4.613282 15.433594-18.28125 26.269532-34.148438 27.421875l28.601562.105469c17.101563.0625 32.203126-11.144531 37.101563-27.527344l52.335937-175.050781c1.71875-5.746094 2.910157-11.542969 3.632813-17.335937zm0 0" fill="#ff8709"/><path d="m326.089844 157.515625c-25.796875-22.472656-40.722656-25.015625-40.707032-29.355469.015626-3.808594 4.804688-2.601562 5.601563-2.777344h.109375c15.03125-.003906 27.246094-11.527343 27.824219-26.285156.609375-15.539062-11.746094-28.410156-27.253907-28.46875l-234.285156-.863281h-.109375c-15.03125 0-27.246093 11.527344-27.824219 26.285156-.609374 15.535157 11.746094 28.410157 27.253907 28.46875 1.449219.15625 6.074219-.832031 6.058593 2.824219-.003906 1.488281-.007812 1.839844-7.933593 6.246094-7.25 4.03125-18.207031 10.121094-32.984375 22.800781-6.523438 5.597656-6.722656 14.996094-1.109375 21.054687-19.824219 28.160157-25.90625 63.8125-16.183594 97.226563l51.042969 175.429687c5.667968 19.472657 23.792968 33.128907 44.074218 33.203126l146.191407.539062h.167969c20.214843 0 38.355468-13.5 44.148437-32.878906l52.335937-175.046875c9.96875-33.34375 4.152344-69.035157-15.464843-97.34375 5.65625-6.015625 5.527343-15.414063-.953125-21.058594zm-269.335938-48c-6.941406-.023437-12.597656-5.777344-12.320312-12.878906.257812-6.554688 6.011718-11.871094 12.839844-11.871094h.050781l234.285156.863281c6.988281.023438 12.59375 5.820313 12.320313 12.878906-.257813 6.558594-6.015626 11.871094-12.839844 11.871094h-.050782c-.410156.109375-13.535156-1.675781-19.058593 10.425782l-195.753907-.722657c-5.503906-12.339843-18.746093-10.453125-19.472656-10.566406zm5.359375 37.183594c5.972657-3.316407 11.363281-6.3125 13.976563-11.617188l195.933594.722657c4.992187 10.152343 17.851562 10.519531 42.570312 31.605468-7.1875-2.492187-14.683594-4.117187-26.199219-4.160156-29.929687-.128906-30.730469 10.734375-57.277343 10.65625-26.445313-.097656-27.1875-10.96875-57.183594-11.078125-.144532 0-.289063 0-.429688 0-29.636718 0-30.375 10.734375-56.839844 10.65625-26.449218-.097656-27.1875-10.96875-57.1875-11.078125-11.453124-.050781-18.980468 1.519531-26.214843 3.960938 12.765625-10.726563 22.019531-15.867188 28.851562-19.667969zm270.015625 102.207031-243.71875-.898438c-9.84375-.117187-10.046875 14.964844-.054687 15l241.753906.890626c-1.5625 7.320312.109375.375-54.308594 182.769531-3.910156 13.070312-16.144531 22.175781-29.777343 22.175781-.039063 0-.074219 0-.113282 0l-146.191406-.539062c-13.679688-.050782-25.902344-9.257813-29.726562-22.394532-53.570313-184.515625-51.503907-176.105468-52.960938-183.167968l39.9375.148437h.027344c9.90625 0 9.929687-14.964844.027344-15l-41.898438-.15625c-1.1875-23.898437 6.355469-47.644531 21.679688-66.714844 5.183593-1.851562 11.253906-3.613281 22.234374-3.613281h.382813c26.511719.097656 27.292969 11.078125 57.613281 11.078125 29.339844 0 30.585938-10.660156 56.441406-10.660156.132813 0 .265626 0 .398438.003906 26.574219.097656 27.222656 11.078125 57.617188 11.078125 29.339843 0 30.585937-10.65625 56.445312-10.65625h.398438c11.222656.039062 17.367187 1.867188 22.605468 3.78125 15.183594 19.183594 22.550782 42.980469 21.1875 66.875zm0 0"/><path d="m495.960938 86.503906c9.652343-13.8125 5.121093-33.222656-10.003907-41.253906 13.539063-18.59375.320313-44.929688-22.796875-45.015625l-63.722656-.234375h-.105469c-23.027343 0-36.496093 26.195312-23.035156 44.875-15.058594 7.882812-19.890625 27.136719-10.289063 41.128906-21.613281 10.207032-21.625 40.910156-.1875 51.222656-9.695312 13.910157-5.035156 33.214844 9.996094 41.214844-13.53125 18.515625-.382812 44.949219 22.796875 45.035156l6.9375.027344-.871093 236.082032c-.050782 13.746093 11.089843 24.96875 24.835937 25.019531h.09375c13.730469 0 24.871094-11.085938 24.921875-24.835938l.871094-236.082031c.101562 0 7.515625.027344 7.042968.027344 23.09375-.003906 36.402344-26.25 23.03125-44.855469 15.386719-8.035156 19.710938-27.484375 10.296876-41.171875 21.554687-10.21875 21.65625-40.816406.1875-51.183594zm-21.40625-2.972656.097656-26.421875c15.164062 2.230469 14.976562 24.320313-.097656 26.421875zm-84.625-64.65625c4.140624-4.109375 8.984374-3.78125 9.453124-3.875l63.722657.234375c16.023437.058594 18.214843 23.296875 2.597656 26.433594-3.492187.703125-6.007813 3.765625-6.023437 7.324219l-.167969 45.683593c-.039063 11.132813-16.730469 11.019531-16.691407-.0625l.167969-45.257812c.015625-4.140625-3.328125-7.511719-7.472656-7.527344l-36.234375-.132813c-11.777344-.042968-17.816406-14.417968-9.351562-22.820312zm-.53125 37.785156h.003906c40.84375.148438-10.554688-.039062 38.558594.140625l-.097657 26.695313-38.507812-.140625c-.003907 0-.003907 0-.003907 0-7.363281-.027344-13.328124-6.039063-13.300781-13.394531.027344-7.347657 6.011719-13.300782 13.347657-13.300782zm50.132812 403.054688c-.019531 5.300781-4.214844 9.832031-9.960938 9.890625-5.488281-.019531-9.910156-4.476563-9.890624-9.964844l.871093-236.082031 19.851563.074218zm22.910156-251.003906c-24.8125-.089844-47.109375-.171876-63.769531-.234376-7.363281-.027343-13.328125-6.039062-13.300781-13.394531.027344-7.34375 6.011718-13.300781 13.347656-13.300781h.074219l63.707031.234375c7.355469.035156 13.316406 6.042969 13.289062 13.398437-.027343 7.34375-6.011718 13.296876-13.347656 13.296876zm21.234375-83.3125h-.050781l-55.296875-.207032h-.027344c-4.128906 0-7.484375 3.339844-7.5 7.472656-.015625 4.144532 3.328125 7.515626 7.472657 7.527344l44.152343.164063c7.375.027343 13.328125 6.019531 13.296875 13.398437-.027344 7.347656-5.984375 13.296875-13.34375 13.296875h-.050781l-83.285156-.308593c-7.359375-.023438-13.324219-6.035157-13.296875-13.394532.027344-7.34375 6.007812-13.296875 13.34375-13.296875.183594 0 9.230468.035157 9.132812.035157.097656-.046876 7.5-.304688 7.527344-7.472657.015625-4.144531-3.332031-7.515625-7.472656-7.527343l-20.226563-.078126c-7.375-.027343-13.324219-6.015624-13.296875-13.394531.027344-7.351562 5.984375-13.300781 13.347656-13.300781h.050782l49.984375.1875c4.273437 25.867188 41.527343 26.003906 46.03125.167969l9.558593.035156c7.359376.027344 13.324219 6.035156 13.296876 13.394531-.027344 7.34375-6.011719 13.300782-13.347657 13.300782zm0 0"/></svg>